<svg width="15" height="15" viewBox="0 0 15 15" fill="none" xmlns="http://www.w3.org/2000/svg">
<path d="M11.3182 4.87544L12.5727 1.09656C12.6818 0.72818 12.6 0.276615 12.3955 0.0864826C12.1977 -0.0917666 11.9523 0.0151833 11.8295 0.347915L10.5477 4.1981C8.59773 2.76022 6.40227 2.76022 4.45227 4.1981L3.17045 0.347915C3.04091 0.0033 2.775 -0.10365 2.57727 0.110249C2.38636 0.324148 2.325 0.751947 2.42727 1.09656L3.68182 4.87544C1.56818 6.97879 0.190909 10.7696 0 15H15C14.8091 10.7696 13.4318 6.97879 11.3182 4.87544ZM4.09091 11.7321C3.62045 11.7321 3.23864 11.0666 3.23864 10.2467C3.23864 9.42674 3.62045 8.76128 4.09091 8.76128C4.56136 8.76128 4.94318 9.42674 4.94318 10.2467C4.94318 11.0666 4.56136 11.7321 4.09091 11.7321ZM10.9091 11.7321C10.4386 11.7321 10.0568 11.0666 10.0568 10.2467C10.0568 9.42674 10.4386 8.76128 10.9091 8.76128C11.3795 8.76128 11.7614 9.42674 11.7614 10.2467C11.7614 11.0666 11.3795 11.7321 10.9091 11.7321Z" fill="#808A97"/>
</svg>
