<svg width="15" height="15" viewBox="0 0 15 15" fill="none" xmlns="http://www.w3.org/2000/svg">
<path d="M7.5 15C8.53125 15 9.375 14.3077 9.375 13.4615H5.625C5.625 14.3077 6.46875 15 7.5 15ZM13.125 10.3846V6.53846C13.125 4.17692 11.5969 2.2 8.90625 1.67692V1.15385C8.90625 0.515385 8.27812 0 7.5 0C6.72188 0 6.09375 0.515385 6.09375 1.15385V1.67692C3.4125 2.2 1.875 4.16923 1.875 6.53846V10.3846L0 11.9231V12.6923H15V11.9231L13.125 10.3846ZM11.25 11.1538H3.75V6.53846C3.75 4.63077 5.16563 3.07692 7.5 3.07692C9.83438 3.07692 11.25 4.63077 11.25 6.53846V11.1538Z" fill="#808A97"/>
</svg>
