<svg width="15" height="15" viewBox="0 0 15 15" fill="none" xmlns="http://www.w3.org/2000/svg">
<path d="M7.5 10.8516C7.375 10.8516 7.25781 10.8319 7.14844 10.7925C7.03906 10.7537 6.9375 10.6875 6.84375 10.5938L3.46875 7.21875C3.29687 7.04688 3.21094 6.82812 3.21094 6.5625C3.21094 6.29688 3.29687 6.07812 3.46875 5.90625C3.64062 5.73438 3.86312 5.64437 4.13625 5.63625C4.41 5.62875 4.63281 5.71094 4.80469 5.88281L6.5625 7.64062V0.9375C6.5625 0.671875 6.6525 0.449063 6.8325 0.269063C7.01188 0.0896877 7.23438 0 7.5 0C7.76562 0 7.98844 0.0896877 8.16844 0.269063C8.34781 0.449063 8.4375 0.671875 8.4375 0.9375V7.64062L10.1953 5.88281C10.3672 5.71094 10.59 5.62875 10.8638 5.63625C11.1369 5.64437 11.3594 5.73438 11.5312 5.90625C11.7031 6.07812 11.7891 6.29688 11.7891 6.5625C11.7891 6.82812 11.7031 7.04688 11.5312 7.21875L8.15625 10.5938C8.0625 10.6875 7.96094 10.7537 7.85156 10.7925C7.74219 10.8319 7.625 10.8516 7.5 10.8516ZM1.875 15C1.35938 15 0.918125 14.8166 0.55125 14.4497C0.18375 14.0822 0 13.6406 0 13.125V11.25C0 10.9844 0.0896877 10.7616 0.269063 10.5816C0.449063 10.4022 0.671875 10.3125 0.9375 10.3125C1.20312 10.3125 1.42594 10.4022 1.60594 10.5816C1.78531 10.7616 1.875 10.9844 1.875 11.25V13.125H13.125V11.25C13.125 10.9844 13.215 10.7616 13.395 10.5816C13.5744 10.4022 13.7969 10.3125 14.0625 10.3125C14.3281 10.3125 14.5506 10.4022 14.73 10.5816C14.91 10.7616 15 10.9844 15 11.25V13.125C15 13.6406 14.8166 14.0822 14.4497 14.4497C14.0822 14.8166 13.6406 15 13.125 15H1.875Z" fill="#808A97"/>
</svg>
