<?xml version="1.0" encoding="UTF-8"?>
<!DOCTYPE svg PUBLIC "-//W3C//DTD SVG 1.1//EN" "http://www.w3.org/Graphics/SVG/1.1/DTD/svg11.dtd">
<svg xmlns="http://www.w3.org/2000/svg" version="1.1" width="1024px" height="1024px" style="shape-rendering:geometricPrecision; text-rendering:geometricPrecision; image-rendering:optimizeQuality; fill-rule:evenodd; clip-rule:evenodd" xmlns:xlink="http://www.w3.org/1999/xlink">
<g><path style="opacity:0.994" fill="#010101" d="M 586.5,561.5 C 582.928,561.938 579.428,562.604 576,563.5C 574.275,562.536 572.441,561.869 570.5,561.5C 567.119,559.12 564.453,556.12 562.5,552.5C 561.883,543.932 561.883,535.265 562.5,526.5C 562.291,525.006 561.624,523.839 560.5,523C 561.167,522.667 561.833,522.333 562.5,522C 562.417,514.956 562.417,507.622 562.5,500C 562.695,497.207 562.029,494.707 560.5,492.5C 561,491.5 561.5,490.5 562,489.5C 562.036,483.864 562.202,478.364 562.5,473C 562.697,470.176 562.031,467.676 560.5,465.5C 561.117,465.389 561.617,465.056 562,464.5C 562.814,459.98 562.647,455.646 561.5,451.5C 561.5,450.5 561.5,449.5 561.5,448.5C 562.653,432.175 562.653,416.009 561.5,400C 561.764,394.353 563.43,389.187 566.5,384.5C 580.304,376.487 589.637,379.987 594.5,395C 593.878,442.711 593.878,491.211 594.5,540.5C 595.281,548.916 592.615,555.916 586.5,561.5 Z"/></g>
<g><path style="opacity:0.004" fill="#353535" d="M 566.5,384.5 C 565.833,383.167 565.833,383.167 566.5,384.5 Z"/></g>
<g><path style="opacity:0.982" fill="#6837a6" d="M 946.5,399.5 C 937.944,398.116 931.278,400.782 926.5,407.5C 929.055,401.12 933.888,397.787 941,397.5C 943.221,397.393 945.054,398.06 946.5,399.5 Z"/></g>
<g><path style="opacity:0.979" fill="#62369f" d="M 926.5,407.5 C 926.335,411.182 926.501,414.848 927,418.5C 928.947,420.063 930.114,422.063 930.5,424.5C 929.833,424.5 929.167,424.5 928.5,424.5C 926.333,421.023 925,417.19 924.5,413C 924.701,410.889 925.367,409.055 926.5,407.5 Z"/></g>
<g><path style="opacity:0.996" fill="#6d31c4" d="M 946.5,399.5 C 946.833,399.5 947.167,399.5 947.5,399.5C 950.243,402.344 952.409,405.678 954,409.5C 954.498,412.482 954.665,415.482 954.5,418.5C 951.593,422.232 947.926,425.065 943.5,427C 938.967,427.284 934.634,426.451 930.5,424.5C 930.114,422.063 928.947,420.063 927,418.5C 926.501,414.848 926.335,411.182 926.5,407.5C 931.278,400.782 937.944,398.116 946.5,399.5 Z"/></g>
<g><path style="opacity:0.98" fill="#6737a6" d="M 947.5,399.5 C 954.826,404.154 957.159,410.488 954.5,418.5C 954.665,415.482 954.498,412.482 954,409.5C 952.409,405.678 950.243,402.344 947.5,399.5 Z"/></g>
<g><path style="opacity:0.004" fill="#654a94" d="M 923.5,416.5 C 924.833,417.167 924.833,417.167 923.5,416.5 Z"/></g>
<g><path style="opacity:0.004" fill="#63458f" d="M 928.5,424.5 C 927.833,425.167 927.833,425.167 928.5,424.5 Z"/></g>
<g><path style="opacity:0.004" fill="#483e56" d="M 897.5,425.5 C 898.833,426.167 898.833,426.167 897.5,425.5 Z"/></g>
<g><path style="opacity:0.008" fill="#59457a" d="M 96.5,427.5 C 96.8966,426.475 97.5632,426.308 98.5,427C 97.9056,427.464 97.2389,427.631 96.5,427.5 Z"/></g>
<g><path style="opacity:0.004" fill="#3d3945" d="M 127.5,426.5 C 128.833,427.167 128.833,427.167 127.5,426.5 Z"/></g>
<g><path style="opacity:0.004" fill="#3e3a46" d="M 129.5,426.5 C 130.833,427.167 130.833,427.167 129.5,426.5 Z"/></g>
<g><path style="opacity:0.004" fill="#323332" d="M 431.5,426.5 C 432.833,427.167 432.833,427.167 431.5,426.5 Z"/></g>
<g><path style="opacity:0.012" fill="#313132" d="M 433.5,426.5 C 434.833,427.167 434.833,427.167 433.5,426.5 Z"/></g>
<g><path style="opacity:0.008" fill="#313031" d="M 689.5,426.5 C 690.833,427.167 690.833,427.167 689.5,426.5 Z"/></g>
<g><path style="opacity:0.996" fill="#030304" d="M 127.5,427.5 C 164.857,438.384 182.69,463.384 181,502.5C 174.833,535.333 155.333,554.833 122.5,561C 106.514,563.371 91.8475,560.205 78.5,551.5C 78.2172,550.711 77.7172,550.044 77,549.5C 76.831,536.327 76.331,523.327 75.5,510.5C 75.5,506.167 75.5,501.833 75.5,497.5C 76.1667,497.833 76.8333,498.167 77.5,498.5C 82.9769,522.58 97.9769,532.746 122.5,529C 141.773,522.179 150.606,509.012 149,489.5C 141.346,463.087 124.179,453.42 97.5,460.5C 97.5,460.167 97.5,459.833 97.5,459.5C 97.5,458.167 97.5,456.833 97.5,455.5C 98.1919,446.599 98.8586,437.599 99.5,428.5C 108.701,426.192 118.034,425.859 127.5,427.5 Z"/></g>
<g><path style="opacity:0.004" fill="#3b3641" d="M 134.5,427.5 C 135.833,428.167 135.833,428.167 134.5,427.5 Z"/></g>
<g><path style="opacity:0.996" fill="#020203" d="M 722.5,428.5 C 725.735,429.773 729.068,431.107 732.5,432.5C 733.167,432.167 733.833,431.833 734.5,431.5C 735.696,431.846 735.696,432.346 734.5,433C 736.768,433.218 738.768,434.052 740.5,435.5C 771.492,456.978 780.992,485.644 769,521.5C 752.629,553.604 726.462,567.104 690.5,562C 679.312,559.892 669.312,555.392 660.5,548.5C 658.5,545.833 656.167,543.5 653.5,541.5C 652.136,539.809 650.803,538.142 649.5,536.5C 648.084,532.983 645.751,530.316 642.5,528.5C 643.653,527.313 643.653,526.313 642.5,525.5C 640.625,524.049 639.958,522.383 640.5,520.5C 629.707,485.121 639.374,456.955 669.5,436C 686.277,427.676 703.944,425.176 722.5,428.5 Z M 738.5,481.5 C 745.618,499.507 741.285,514.341 725.5,526C 706.859,535.379 690.359,532.545 676,517.5C 675.536,516.906 675.369,516.239 675.5,515.5C 671.019,509.884 669.019,503.384 669.5,496C 668.913,486.923 671.58,479.09 677.5,472.5C 691.614,456.8 707.947,454.3 726.5,465C 732.331,469.307 736.331,474.807 738.5,481.5 Z"/></g>
<g><path style="opacity:0.004" fill="#342f32" d="M 722.5,427.5 C 723.833,428.167 723.833,428.167 722.5,427.5 Z"/></g>
<g><path style="opacity:0.996" fill="#030203" d="M 928.5,440.5 C 932.833,444.167 936.833,448.167 940.5,452.5C 959.556,479.358 960.223,506.691 942.5,534.5C 920.093,560.645 892.593,567.978 860,556.5C 858.16,557.833 857.66,557.666 858.5,556C 854.34,553.977 850.34,551.811 846.5,549.5C 845.738,547.738 844.404,546.738 842.5,546.5C 841.674,544.736 840.341,543.402 838.5,542.5C 830.319,533.004 824.319,522.337 820.5,510.5C 818.504,500.883 818.171,491.216 819.5,481.5C 823.492,465.181 831.826,451.514 844.5,440.5C 848.372,438.403 852.039,436.069 855.5,433.5C 856.492,433.672 857.158,433.338 857.5,432.5C 870.021,428.433 882.854,426.433 896,426.5C 907.606,429.387 918.439,434.053 928.5,440.5 Z M 914.5,472.5 C 918.556,476.611 921.056,481.611 922,487.5C 923.319,516.513 909.486,530.68 880.5,530C 858.872,524.405 849.372,509.905 852,486.5C 858.749,465.086 873.249,455.92 895.5,459C 898.618,460.059 901.618,461.392 904.5,463C 908.008,465.323 911.341,468.489 914.5,472.5 Z"/></g>
<g><path style="opacity:0.008" fill="#624490" d="M 932.5,427.5 C 931.833,428.167 931.833,428.167 932.5,427.5 Z"/></g>
<g><path style="opacity:0.941" fill="#60309c" d="M 954.5,418.5 C 953.174,422.67 950.508,425.837 946.5,428C 942.709,429.161 938.876,429.661 935,429.5C 934.583,428.244 933.75,427.577 932.5,427.5C 931.833,426.5 931.167,425.5 930.5,424.5C 934.634,426.451 938.967,427.284 943.5,427C 947.926,425.065 951.593,422.232 954.5,418.5 Z"/></g>
<g><path style="opacity:0.996" fill="#020203" d="M 302.5,459.5 C 291.334,457.446 282.001,460.779 274.5,469.5C 268.963,474.897 265.796,481.563 265,489.5C 264.667,510.167 264.333,530.833 264,551.5C 260.296,560.859 253.463,564.359 243.5,562C 239.229,560.03 236.229,557.363 234.5,554C 233.833,550.667 233.167,547.333 232.5,544C 232.943,525.997 232.943,508.33 232.5,491C 234.06,467.023 244.727,448.523 264.5,435.5C 265.492,435.672 266.158,435.338 266.5,434.5C 290.822,423.799 314.155,425.633 336.5,440C 345.048,449.471 344.381,458.137 334.5,466C 331.262,467.368 327.928,467.701 324.5,467C 320.016,465.257 315.683,463.257 311.5,461C 308.607,459.851 305.607,459.351 302.5,459.5 Z"/></g>
<g><path style="opacity:0.996" fill="#020202" d="M 476.5,432.5 C 508.895,449.626 521.728,476.293 515,512.5C 506.848,538.987 489.348,555.487 462.5,562C 440.87,566.243 421.203,561.41 403.5,547.5C 400.833,544.167 397.833,541.167 394.5,538.5C 374.713,509.947 374.546,481.28 394,452.5C 398.037,448.631 401.87,444.631 405.5,440.5C 409.439,438.554 413.106,436.221 416.5,433.5C 436.361,425.895 456.361,425.562 476.5,432.5 Z M 440.5,458.5 C 462.681,456.874 477.181,466.541 484,487.5C 486.886,510.249 477.386,524.749 455.5,531C 435.414,533.219 421.581,525.052 414,506.5C 409.574,483.009 418.407,467.009 440.5,458.5 Z"/></g>
<g><path style="opacity:0.004" fill="#2d2e2f" d="M 264.5,431.5 C 265.833,432.167 265.833,432.167 264.5,431.5 Z"/></g>
<g><path style="opacity:0.008" fill="#2e2d2d" d="M 269.5,431.5 C 270.833,432.167 270.833,432.167 269.5,431.5 Z"/></g>
<g><path style="opacity:0.006" fill="#2d2a2c" d="M 476.5,432.5 C 476.897,431.475 477.563,431.308 478.5,432C 477.906,432.464 477.239,432.631 476.5,432.5 Z"/></g>
<g><path style="opacity:0.012" fill="#332e35" d="M 857.5,432.5 C 856.833,431.167 856.833,431.167 857.5,432.5 Z"/></g>
<g><path style="opacity:0.008" fill="#2b292a" d="M 416.5,433.5 C 415.833,432.167 415.833,432.167 416.5,433.5 Z"/></g>
<g><path style="opacity:0.004" fill="#2e2e2e" d="M 479.5,432.5 C 480.833,433.167 480.833,433.167 479.5,432.5 Z"/></g>
<g><path style="opacity:0.004" fill="#252727" d="M 559.5,432.5 C 560.833,433.167 560.833,433.167 559.5,432.5 Z"/></g>
<g><path style="opacity:0.004" fill="#353239" d="M 855.5,433.5 C 854.833,432.167 854.833,432.167 855.5,433.5 Z"/></g>
<g><path style="opacity:0.004" fill="#2b2d2c" d="M 266.5,434.5 C 265.833,433.167 265.833,433.167 266.5,434.5 Z"/></g>
<g><path style="opacity:0.008" fill="#2d2d2d" d="M 413.5,433.5 C 414.833,434.167 414.833,434.167 413.5,433.5 Z"/></g>
<g><path style="opacity:0.997" fill="#642db1" d="M 97.5,428.5 C 97.5,429.167 97.5,429.833 97.5,430.5C 96.6745,434.982 96.1745,439.649 96,444.5C 95.6667,443.167 95.3333,441.833 95,440.5C 92.8482,448.221 91.1815,448.221 90,440.5C 88.8229,441.318 87.4896,442.318 86,443.5C 84.1119,442.223 82.1119,441.223 80,440.5C 77.8076,442.737 75.3076,443.404 72.5,442.5C 70.3796,443.403 70.0462,444.737 71.5,446.5C 69.5,447.333 67.5,448.167 65.5,449C 62.6007,451.729 59.934,454.562 57.5,457.5C 66.7908,442.497 80.1241,432.831 97.5,428.5 Z"/></g>
<g><path style="opacity:0.004" fill="#2d2d2e" d="M 264.5,435.5 C 263.833,434.167 263.833,434.167 264.5,435.5 Z"/></g>
<g><path style="opacity:0.004" fill="#262528" d="M 559.5,434.5 C 560.833,435.167 560.833,435.167 559.5,434.5 Z"/></g>
<g><path style="opacity:0.004" fill="#302f31" d="M 740.5,435.5 C 740.897,434.475 741.563,434.308 742.5,435C 741.906,435.464 741.239,435.631 740.5,435.5 Z"/></g>
<g><path style="opacity:0.012" fill="#2a292a" d="M 405.5,440.5 C 404.833,439.167 404.833,439.167 405.5,440.5 Z"/></g>
<g><path style="opacity:0.008" fill="#2f2b31" d="M 844.5,440.5 C 843.833,439.167 843.833,439.167 844.5,440.5 Z"/></g>
<g><path style="opacity:0.004" fill="#4c395d" d="M 928.5,439.5 C 929.833,440.167 929.833,440.167 928.5,439.5 Z"/></g>
<g><path style="opacity:0.004" fill="#2b2b2d" d="M 401.5,441.5 C 402.833,442.167 402.833,442.167 401.5,441.5 Z"/></g>
<g><path style="opacity:0.004" fill="#4d3a62" d="M 933.5,441.5 C 934.833,442.167 934.833,442.167 933.5,441.5 Z"/></g>
<g><path style="opacity:0.004" fill="#2a2d2c" d="M 657.5,442.5 C 658.833,443.167 658.833,443.167 657.5,442.5 Z"/></g>
<g><path style="opacity:0.996" fill="#180731" d="M 97.5,428.5 C 98.1667,428.5 98.8333,428.5 99.5,428.5C 98.8586,437.599 98.1919,446.599 97.5,455.5C 97.5,447.167 97.5,438.833 97.5,430.5C 97.5,429.833 97.5,429.167 97.5,428.5 Z"/></g>
<g><path style="opacity:0.01" fill="#252426" d="M 561.5,448.5 C 560.761,448.631 560.094,448.464 559.5,448C 560.437,447.308 561.103,447.475 561.5,448.5 Z"/></g>
<g><path style="opacity:0.997" fill="#6a2fc3" d="M 97.5,430.5 C 97.5,438.833 97.5,447.167 97.5,455.5C 97.5,456.833 97.5,458.167 97.5,459.5C 87.8606,463.98 81.0273,471.314 77,481.5C 75.9054,486.78 75.4054,492.113 75.5,497.5C 75.5,501.833 75.5,506.167 75.5,510.5C 75.5,523.833 75.5,537.167 75.5,550.5C 74.669,537.673 74.169,524.673 74,511.5C 73.6667,518.167 73.3333,524.833 73,531.5C 72.5814,532.672 71.9147,533.672 71,534.5C 68.9864,532.155 66.653,530.155 64,528.5C 63.6667,529.167 63.3333,529.833 63,530.5C 62.3333,529.167 61.6667,529.167 61,530.5C 60.4257,528.508 59.259,527.008 57.5,526C 58.6537,525.086 58.487,524.253 57,523.5C 56.6667,523.833 56.3333,524.167 56,524.5C 52.91,520.318 50.91,515.651 50,510.5C 48.5216,499.873 48.1883,489.206 49,478.5C 50.2947,473.244 52.628,468.577 56,464.5C 56.4396,462.134 56.9396,459.801 57.5,457.5C 59.934,454.562 62.6007,451.729 65.5,449C 67.5,448.167 69.5,447.333 71.5,446.5C 70.0462,444.737 70.3796,443.403 72.5,442.5C 75.3076,443.404 77.8076,442.737 80,440.5C 82.1119,441.223 84.1119,442.223 86,443.5C 87.4896,442.318 88.8229,441.318 90,440.5C 91.1815,448.221 92.8482,448.221 95,440.5C 95.3333,441.833 95.6667,443.167 96,444.5C 96.1745,439.649 96.6745,434.982 97.5,430.5 Z"/></g>
<g><path style="opacity:0.004" fill="#272526" d="M 561.5,451.5 C 560.833,452.167 560.833,452.167 561.5,451.5 Z"/></g>
<g><path style="opacity:0.004" fill="#4b3a61" d="M 940.5,451.5 C 941.833,452.167 941.833,452.167 940.5,451.5 Z"/></g>
<g><path style="opacity:0.008" fill="#242724" d="M 559.5,456.5 C 560.833,457.167 560.833,457.167 559.5,456.5 Z"/></g>
<g><path style="opacity:0.004" fill="#2f2c2f" d="M 827.5,456.5 C 828.833,457.167 828.833,457.167 827.5,456.5 Z"/></g>
<g><path style="opacity:0.004" fill="#2d2d2c" d="M 384.5,458.5 C 385.833,459.167 385.833,459.167 384.5,458.5 Z"/></g>
<g><path style="opacity:0.004" fill="#28262a" d="M 294.5,459.5 C 295.833,460.167 295.833,460.167 294.5,459.5 Z"/></g>
<g><path style="opacity:0.006" fill="#2c292d" d="M 302.5,459.5 C 302.103,460.525 301.437,460.692 300.5,460C 301.094,459.536 301.761,459.369 302.5,459.5 Z"/></g>
<g><path style="opacity:0.004" fill="#2a272b" d="M 289.5,461.5 C 289.897,460.475 290.563,460.308 291.5,461C 290.906,461.464 290.239,461.631 289.5,461.5 Z"/></g>
<g><path style="opacity:0.012" fill="#2c2c2d" d="M 303.5,460.5 C 304.833,461.167 304.833,461.167 303.5,460.5 Z"/></g>
<g><path style="opacity:0.008" fill="#2a292b" d="M 305.5,460.5 C 306.833,461.167 306.833,461.167 305.5,460.5 Z"/></g>
<g><path style="opacity:0.004" fill="#2a292b" d="M 289.5,461.5 C 288.833,462.167 288.833,462.167 289.5,461.5 Z"/></g>
<g><path style="opacity:0.008" fill="#2d2a2c" d="M 307.5,461.5 C 308.833,462.167 308.833,462.167 307.5,461.5 Z"/></g>
<g><path style="opacity:0.004" fill="#2c292c" d="M 309.5,461.5 C 310.833,462.167 310.833,462.167 309.5,461.5 Z"/></g>
<g><path style="opacity:0.008" fill="#2b292d" d="M 284.5,462.5 C 285.833,463.167 285.833,463.167 284.5,462.5 Z"/></g>
<g><path style="opacity:0.004" fill="#282827" d="M 640.5,463.5 C 641.833,464.167 641.833,464.167 640.5,463.5 Z"/></g>
<g><path style="opacity:0.008" fill="#292b2b" d="M 236.5,464.5 C 237.833,465.167 237.833,465.167 236.5,464.5 Z"/></g>
<g><path style="opacity:0.004" fill="#232427" d="M 560.5,465.5 C 559.833,464.167 559.833,464.167 560.5,465.5 Z"/></g>
<g><path style="opacity:0.004" fill="#282829" d="M 274.5,469.5 C 275.833,470.167 275.833,470.167 274.5,469.5 Z"/></g>
<g><path style="opacity:0.004" fill="#272826" d="M 559.5,473.5 C 560.833,474.167 560.833,474.167 559.5,473.5 Z"/></g>
<g><path style="opacity:0.004" fill="#252626" d="M 560.5,475.5 C 561.833,476.167 561.833,476.167 560.5,475.5 Z"/></g>
<g><path style="opacity:0.004" fill="#2b2a2a" d="M 379.5,477.5 C 380.833,478.167 380.833,478.167 379.5,477.5 Z"/></g>
<g><path style="opacity:0.91" fill="#5e2f9c" d="M 97.5,459.5 C 97.5,459.833 97.5,460.167 97.5,460.5C 82.9929,468.84 76.3262,481.507 77.5,498.5C 76.8333,498.167 76.1667,497.833 75.5,497.5C 75.4054,492.113 75.9054,486.78 77,481.5C 81.0273,471.314 87.8606,463.98 97.5,459.5 Z"/></g>
<g><path style="opacity:0.004" fill="#242325" d="M 516.5,479.5 C 517.833,480.167 517.833,480.167 516.5,479.5 Z"/></g>
<g><path style="opacity:0.004" fill="#2c2c2d" d="M 378.5,480.5 C 379.833,481.167 379.833,481.167 378.5,480.5 Z"/></g>
<g><path style="opacity:0.004" fill="#2b292c" d="M 819.5,481.5 C 818.833,480.167 818.833,480.167 819.5,481.5 Z"/></g>
<g><path style="opacity:0.004" fill="#272727" d="M 635.5,481.5 C 636.833,482.167 636.833,482.167 635.5,481.5 Z"/></g>
<g><path style="opacity:0.004" fill="#2f2d31" d="M 815.5,481.5 C 816.525,481.897 816.692,482.563 816,483.5C 815.536,482.906 815.369,482.239 815.5,481.5 Z"/></g>
<g><path style="opacity:0.008" fill="#2d2c30" d="M 817.5,482.5 C 818.525,482.897 818.692,483.563 818,484.5C 817.536,483.906 817.369,483.239 817.5,482.5 Z"/></g>
<g><path style="opacity:0.004" fill="#262428" d="M 634.5,484.5 C 635.833,485.167 635.833,485.167 634.5,484.5 Z"/></g>
<g><path style="opacity:0.012" fill="#242524" d="M 634.5,488.5 C 635.833,489.167 635.833,489.167 634.5,488.5 Z"/></g>
<g><path style="opacity:0.008" fill="#252828" d="M 377.5,490.5 C 378.833,491.167 378.833,491.167 377.5,490.5 Z"/></g>
<g><path style="opacity:0.004" fill="#7f5bbd" d="M 43.5,496.5 C 44.8333,497.167 44.8333,497.167 43.5,496.5 Z"/></g>
<g><path style="opacity:0.004" fill="#26232b" d="M 182.5,498.5 C 183.833,499.167 183.833,499.167 182.5,498.5 Z"/></g>
<g><path style="opacity:0.004" fill="#292728" d="M 377.5,498.5 C 378.525,498.897 378.692,499.563 378,500.5C 377.536,499.906 377.369,499.239 377.5,498.5 Z"/></g>
<g><path style="opacity:0.004" fill="#2e3134" d="M 817.5,499.5 C 818.833,500.167 818.833,500.167 817.5,499.5 Z"/></g>
<g><path style="opacity:0.004" fill="#2c2e2f" d="M 231.5,501.5 C 232.833,502.167 232.833,502.167 231.5,501.5 Z"/></g>
<g><path style="opacity:0.004" fill="#272929" d="M 559.5,502.5 C 560.833,503.167 560.833,503.167 559.5,502.5 Z"/></g>
<g><path style="opacity:0.004" fill="#262728" d="M 634.5,502.5 C 635.833,503.167 635.833,503.167 634.5,502.5 Z"/></g>
<g><path style="opacity:0.004" fill="#453a55" d="M 954.5,508.5 C 955.833,509.167 955.833,509.167 954.5,508.5 Z"/></g>
<g><path style="opacity:0.008" fill="#353038" d="M 819.5,510.5 C 818.833,509.167 818.833,509.167 819.5,510.5 Z"/></g>
<g><path style="opacity:0.004" fill="#27292a" d="M 631.5,510.5 C 632.833,511.167 632.833,511.167 631.5,510.5 Z"/></g>
<g><path style="opacity:0.008" fill="#312e38" d="M 819.5,510.5 C 819.833,510.5 820.167,510.5 820.5,510.5C 820.315,511.17 819.981,511.17 819.5,510.5 Z"/></g>
<g><path style="opacity:0.004" fill="#282728" d="M 560.5,511.5 C 561.833,512.167 561.833,512.167 560.5,511.5 Z"/></g>
<g><path style="opacity:0.004" fill="#805dbc" d="M 43.5,515.5 C 44.8333,516.167 44.8333,516.167 43.5,515.5 Z"/></g>
<g><path style="opacity:0.004" fill="#2d2a2e" d="M 180.5,518.5 C 181.833,519.167 181.833,519.167 180.5,518.5 Z"/></g>
<g><path style="opacity:0.004" fill="#28272c" d="M 640.5,520.5 C 639.833,521.167 639.833,521.167 640.5,520.5 Z"/></g>
<g><path style="opacity:0.004" fill="#2c2d2b" d="M 642.5,525.5 C 641.833,526.167 641.833,526.167 642.5,525.5 Z"/></g>
<g><path style="opacity:0.008" fill="#815ebb" d="M 43.5,527.5 C 44.525,527.897 44.6917,528.563 44,529.5C 43.5357,528.906 43.369,528.239 43.5,527.5 Z"/></g>
<g><path style="opacity:0.004" fill="#282a2a" d="M 559.5,528.5 C 560.833,529.167 560.833,529.167 559.5,528.5 Z"/></g>
<g><path style="opacity:0.004" fill="#3e3449" d="M 827.5,530.5 C 828.833,531.167 828.833,531.167 827.5,530.5 Z"/></g>
<g><path style="opacity:0.004" fill="#3f354d" d="M 828.5,532.5 C 829.833,533.167 829.833,533.167 828.5,532.5 Z"/></g>
<g><path style="opacity:0.004" fill="#805dbb" d="M 43.5,534.5 C 44.8333,535.167 44.8333,535.167 43.5,534.5 Z"/></g>
<g><path style="opacity:0.004" fill="#3f314d" d="M 942.5,534.5 C 943.833,535.167 943.833,535.167 942.5,534.5 Z"/></g>
<g><path style="opacity:0.996" fill="#6733b4" d="M 57.5,457.5 C 56.9396,459.801 56.4396,462.134 56,464.5C 52.628,468.577 50.2947,473.244 49,478.5C 48.1883,489.206 48.5216,499.873 50,510.5C 50.91,515.651 52.91,520.318 56,524.5C 56.3333,524.167 56.6667,523.833 57,523.5C 58.487,524.253 58.6537,525.086 57.5,526C 59.259,527.008 60.4257,528.508 61,530.5C 61.6667,529.167 62.3333,529.167 63,530.5C 63.3333,529.833 63.6667,529.167 64,528.5C 66.653,530.155 68.9864,532.155 71,534.5C 71.9147,533.672 72.5814,532.672 73,531.5C 73.3333,524.833 73.6667,518.167 74,511.5C 74.169,524.673 74.669,537.673 75.5,550.5C 75.8269,560.015 75.4936,569.348 74.5,578.5C 74.9234,568.42 74.4234,558.42 73,548.5C 66.0423,542.549 60.2089,535.715 55.5,528C 54.2068,527.51 52.8734,527.343 51.5,527.5C 51.2562,522.933 50.0896,518.599 48,514.5C 47.3333,536.5 47.3333,558.5 48,580.5C 48.6077,582.154 49.1077,583.821 49.5,585.5C 47.3057,583.779 46.139,581.445 46,578.5C 45.3333,548.167 45.3333,517.833 46,487.5C 47.4029,476.442 51.2362,466.442 57.5,457.5 Z"/></g>
<g><path style="opacity:0.004" fill="#2c2c2d" d="M 649.5,536.5 C 648.833,537.167 648.833,537.167 649.5,536.5 Z"/></g>
<g><path style="opacity:0.008" fill="#2c2d2c" d="M 394.5,538.5 C 393.833,539.167 393.833,539.167 394.5,538.5 Z"/></g>
<g><path style="opacity:0.004" fill="#2d282d" d="M 650.5,540.5 C 651.833,541.167 651.833,541.167 650.5,540.5 Z"/></g>
<g><path style="opacity:0.008" fill="#463857" d="M 832.5,540.5 C 833.833,541.167 833.833,541.167 832.5,540.5 Z"/></g>
<g><path style="opacity:0.004" fill="#815bbd" d="M 43.5,541.5 C 44.8333,542.167 44.8333,542.167 43.5,541.5 Z"/></g>
<g><path style="opacity:0.008" fill="#2d2c2e" d="M 653.5,541.5 C 652.833,542.167 652.833,542.167 653.5,541.5 Z"/></g>
<g><path style="opacity:0.008" fill="#463559" d="M 834.5,542.5 C 835.833,543.167 835.833,543.167 834.5,542.5 Z"/></g>
<g><path style="opacity:0.012" fill="#433655" d="M 838.5,542.5 C 837.833,543.167 837.833,543.167 838.5,542.5 Z"/></g>
<g><path style="opacity:0.004" fill="#302e2f" d="M 400.5,546.5 C 401.833,547.167 401.833,547.167 400.5,546.5 Z"/></g>
<g><path style="opacity:0.004" fill="#4b375e" d="M 842.5,546.5 C 841.833,547.167 841.833,547.167 842.5,546.5 Z"/></g>
<g><path style="opacity:0.004" fill="#312e2f" d="M 403.5,547.5 C 402.833,548.167 402.833,548.167 403.5,547.5 Z"/></g>
<g><path style="opacity:0.008" fill="#322c31" d="M 660.5,548.5 C 659.833,549.167 659.833,549.167 660.5,548.5 Z"/></g>
<g><path style="opacity:0.004" fill="#4b3660" d="M 846.5,549.5 C 845.833,550.167 845.833,550.167 846.5,549.5 Z"/></g>
<g><path style="opacity:0.004" fill="#312d33" d="M 661.5,550.5 C 662.833,551.167 662.833,551.167 661.5,550.5 Z"/></g>
<g><path style="opacity:0.996" fill="#6b31c5" d="M 74.5,578.5 C 73.4861,581.507 72.4861,584.507 71.5,587.5C 66.0598,589.445 60.3931,589.945 54.5,589C 53.0899,587.628 51.4233,586.795 49.5,586.5C 49.5,586.167 49.5,585.833 49.5,585.5C 49.1077,583.821 48.6077,582.154 48,580.5C 47.3333,558.5 47.3333,536.5 48,514.5C 50.0896,518.599 51.2562,522.933 51.5,527.5C 52.8734,527.343 54.2068,527.51 55.5,528C 60.2089,535.715 66.0423,542.549 73,548.5C 74.4234,558.42 74.9234,568.42 74.5,578.5 Z"/></g>
<g><path style="opacity:0.004" fill="#323131" d="M 562.5,552.5 C 561.833,553.167 561.833,553.167 562.5,552.5 Z"/></g>
<g><path style="opacity:0.004" fill="#64438b" d="M 77.5,554.5 C 78.8333,555.167 78.8333,555.167 77.5,554.5 Z"/></g>
<g><path style="opacity:0.004" fill="#4c335f" d="M 918.5,555.5 C 919.833,556.167 919.833,556.167 918.5,555.5 Z"/></g>
<g><path style="opacity:0.004" fill="#644090" d="M 77.5,558.5 C 78.8333,559.167 78.8333,559.167 77.5,558.5 Z"/></g>
<g><path style="opacity:0.004" fill="#312d30" d="M 476.5,558.5 C 477.833,559.167 477.833,559.167 476.5,558.5 Z"/></g>
<g><path style="opacity:0.004" fill="#714da2" d="M 943.5,560.5 C 944.833,561.167 944.833,561.167 943.5,560.5 Z"/></g>
<g><path style="opacity:0.004" fill="#363437" d="M 570.5,561.5 C 569.833,562.167 569.833,562.167 570.5,561.5 Z"/></g>
<g><path style="opacity:0.008" fill="#353335" d="M 586.5,561.5 C 587.833,562.167 587.833,562.167 586.5,561.5 Z"/></g>
<g><path style="opacity:0.004" fill="#43364d" d="M 109.5,562.5 C 110.833,563.167 110.833,563.167 109.5,562.5 Z"/></g>
<g><path style="opacity:0.004" fill="#373538" d="M 241.5,562.5 C 242.833,563.167 242.833,563.167 241.5,562.5 Z"/></g>
<g><path style="opacity:0.004" fill="#4e3867" d="M 874.5,562.5 C 875.833,563.167 875.833,563.167 874.5,562.5 Z"/></g>
<g><path style="opacity:0.008" fill="#4c3461" d="M 876.5,562.5 C 877.833,563.167 877.833,563.167 876.5,562.5 Z"/></g>
<g><path style="opacity:0.004" fill="#825cba" d="M 43.5,563.5 C 44.8333,564.167 44.8333,564.167 43.5,563.5 Z"/></g>
<g><path style="opacity:0.004" fill="#353236" d="M 245.5,563.5 C 246.833,564.167 246.833,564.167 245.5,563.5 Z"/></g>
<g><path style="opacity:0.004" fill="#363236" d="M 252.5,563.5 C 253.833,564.167 253.833,564.167 252.5,563.5 Z"/></g>
<g><path style="opacity:0.008" fill="#2e2d2d" d="M 446.5,564.5 C 447.833,565.167 447.833,565.167 446.5,564.5 Z"/></g>
<g><path style="opacity:0.984" fill="#642fa5" d="M 951.5,567.5 C 946.672,565.698 941.672,565.198 936.5,566C 931.955,569.384 927.289,572.55 922.5,575.5C 926.271,572.232 929.938,568.732 933.5,565C 938.877,561.862 944.21,561.862 949.5,565C 950.381,565.708 951.047,566.542 951.5,567.5 Z"/></g>
<g><path style="opacity:0.365" fill="#552f8b" d="M 75.5,510.5 C 76.331,523.327 76.831,536.327 77,549.5C 77.7172,550.044 78.2172,550.711 78.5,551.5C 76.6879,560.781 75.8545,570.448 76,580.5C 75.4842,583.547 73.9842,585.88 71.5,587.5C 72.4861,584.507 73.4861,581.507 74.5,578.5C 75.4936,569.348 75.8269,560.015 75.5,550.5C 75.5,537.167 75.5,523.833 75.5,510.5 Z"/></g>
<g><path style="opacity:0.988" fill="#6838a3" d="M 818.5,571.5 C 818.335,574.518 818.502,577.518 819,580.5C 820.808,583.438 822.308,586.438 823.5,589.5C 822.061,587.64 820.395,585.973 818.5,584.5C 817.738,582.044 817.071,579.544 816.5,577C 816.701,574.889 817.367,573.055 818.5,571.5 Z"/></g>
<g><path style="opacity:1" fill="#622ca3" d="M 856.5,578.5 C 863.738,583.077 871.738,585.577 880.5,586C 887.896,586.491 895.229,585.991 902.5,584.5C 900.438,585.776 898.104,586.61 895.5,587C 872.453,589.933 853.12,583.1 837.5,566.5C 833.243,564.123 828.91,563.956 824.5,566C 822.63,568.04 820.63,569.873 818.5,571.5C 823.057,563.189 829.723,561.022 838.5,565C 842.132,567.63 845.465,570.63 848.5,574C 850.817,576.157 853.484,577.657 856.5,578.5 Z"/></g>
<g><path style="opacity:0.004" fill="#7a59b2" d="M 818.5,584.5 C 817.833,585.167 817.833,585.167 818.5,584.5 Z"/></g>
<g><path style="opacity:0.941" fill="#632fa5" d="M 49.5,586.5 C 51.4233,586.795 53.0899,587.628 54.5,589C 60.3931,589.945 66.0598,589.445 71.5,587.5C 63.9825,593.81 56.6492,593.476 49.5,586.5 Z"/></g>
<g><path style="opacity:0.004" fill="#7e58b4" d="M 825.5,592.5 C 824.833,593.167 824.833,593.167 825.5,592.5 Z"/></g>
<g><path style="opacity:0.008" fill="#7e59b7" d="M 827.5,594.5 C 826.833,595.167 826.833,595.167 827.5,594.5 Z"/></g>
<g><path style="opacity:0.898" fill="#6936a7" d="M 951.5,567.5 C 952.458,567.953 953.292,568.619 954,569.5C 956.953,575.757 956.286,581.757 952,587.5C 945.061,595.287 936.894,601.287 927.5,605.5C 927.414,604.504 927.748,603.671 928.5,603C 938.757,598.627 946.923,591.794 953,582.5C 954.662,577.302 954.162,572.302 951.5,567.5 Z"/></g>
<g><path style="opacity:0.997" fill="#6d31c6" d="M 902.5,584.5 C 909.355,582.075 916.022,579.075 922.5,575.5C 927.289,572.55 931.955,569.384 936.5,566C 941.672,565.198 946.672,565.698 951.5,567.5C 954.162,572.302 954.662,577.302 953,582.5C 946.923,591.794 938.757,598.627 928.5,603C 927.748,603.671 927.414,604.504 927.5,605.5C 922.962,606.437 918.629,607.937 914.5,610C 906.995,610.618 899.661,611.951 892.5,614C 887.177,614.499 881.844,614.666 876.5,614.5C 875.5,614.5 874.5,614.5 873.5,614.5C 867.736,612.057 861.736,610.223 855.5,609C 847.338,604.971 839.338,600.804 831.5,596.5C 829.938,596.267 828.605,595.6 827.5,594.5C 827.167,593.5 826.5,592.833 825.5,592.5C 824.833,591.5 824.167,590.5 823.5,589.5C 822.308,586.438 820.808,583.438 819,580.5C 818.502,577.518 818.335,574.518 818.5,571.5C 820.63,569.873 822.63,568.04 824.5,566C 828.91,563.956 833.243,564.123 837.5,566.5C 853.12,583.1 872.453,589.933 895.5,587C 898.104,586.61 900.438,585.776 902.5,584.5 Z"/></g>
<g><path style="opacity:0.004" fill="#7347ad" d="M 911.5,578.5 C 912.833,579.167 912.833,579.167 911.5,578.5 Z"/></g>
<g><path style="opacity:0.008" fill="#724daf" d="M 856.5,577.5 C 857.833,578.167 857.833,578.167 856.5,577.5 Z"/></g>
<g><path style="opacity:0.008" fill="#7e56b9" d="M 839.5,604.5 C 840.833,605.167 840.833,605.167 839.5,604.5 Z"/></g>
<g><path style="opacity:0.004" fill="#8057b8" d="M 853.5,610.5 C 852.833,611.167 852.833,611.167 853.5,610.5 Z"/></g>
<g><path style="opacity:0.996" fill="#632ea4" d="M 831.5,596.5 C 839.338,600.804 847.338,604.971 855.5,609C 861.736,610.223 867.736,612.057 873.5,614.5C 866.765,613.483 860.098,612.149 853.5,610.5C 849.054,607.774 844.387,605.274 839.5,603C 836.58,601.054 833.913,598.887 831.5,596.5 Z"/></g>
<g><path style="opacity:0.986" fill="#6835ab" d="M 927.5,605.5 C 911.401,613.794 894.401,616.794 876.5,614.5C 881.844,614.666 887.177,614.499 892.5,614C 899.661,611.951 906.995,610.618 914.5,610C 918.629,607.937 922.962,606.437 927.5,605.5 Z"/></g>
<g><path style="opacity:0.008" fill="#7e56bc" d="M 857.5,612.5 C 858.833,613.167 858.833,613.167 857.5,612.5 Z"/></g>
<g><path style="opacity:0.004" fill="#7e56ba" d="M 860.5,613.5 C 861.833,614.167 861.833,614.167 860.5,613.5 Z"/></g>
<g><path style="opacity:0.004" fill="#7e5abb" d="M 866.5,614.5 C 867.833,615.167 867.833,615.167 866.5,614.5 Z"/></g>
<g><path style="opacity:0.004" fill="#8059b8" d="M 884.5,616.5 C 885.833,617.167 885.833,617.167 884.5,616.5 Z"/></g>
<g><path style="opacity:0.004" fill="#585958" d="M 307.5,933.5 C 308.833,934.167 308.833,934.167 307.5,933.5 Z"/></g>
</svg>
